<svg xmlns="http://www.w3.org/2000/svg" xmlns:xlink="http://www.w3.org/1999/xlink" width="1024" zoomAndPan="magnify" viewBox="0 0 768 431.999984" height="576" preserveAspectRatio="xMidYMid meet" version="1.0"><defs><g/><clipPath id="665fa4426b"><rect x="0" width="726" y="0" height="364"/></clipPath></defs><g transform="matrix(1, 0, 0, 1, 0, 32)"><g clip-path="url(#665fa4426b)"><g fill="#767676" fill-opacity="1"><g transform="translate(0.0000142222, 287.86259)"><g><path d="M 114.90625 3.078125 C 95.488281 3.078125 78.4375 -1.53125 63.75 -10.75 C 49.0625 -19.976562 37.566406 -32.957031 29.265625 -49.6875 C 20.972656 -66.425781 16.828125 -86.164062 16.828125 -108.90625 C 16.828125 -131.84375 20.953125 -151.675781 29.203125 -168.40625 C 37.453125 -185.144531 48.867188 -198.125 63.453125 -207.34375 C 78.046875 -216.570312 94.757812 -221.1875 113.59375 -221.1875 C 125.113281 -221.1875 135.898438 -219.453125 145.953125 -215.984375 C 156.003906 -212.523438 164.976562 -207.597656 172.875 -201.203125 C 180.78125 -194.816406 187.367188 -187.226562 192.640625 -178.4375 C 197.910156 -169.65625 201.472656 -159.945312 203.328125 -149.3125 L 175.21875 -149.3125 C 173.070312 -156.34375 170.117188 -162.710938 166.359375 -168.421875 C 162.609375 -174.128906 158.117188 -179.003906 152.890625 -183.046875 C 147.671875 -187.097656 141.769531 -190.222656 135.1875 -192.421875 C 128.601562 -194.617188 121.40625 -195.71875 113.59375 -195.71875 C 100.414062 -195.71875 88.554688 -192.328125 78.015625 -185.546875 C 67.484375 -178.765625 59.140625 -168.90625 52.984375 -155.96875 C 46.835938 -143.039062 43.765625 -127.351562 43.765625 -108.90625 C 43.765625 -90.65625 46.863281 -75.085938 53.0625 -62.203125 C 59.257812 -49.328125 67.703125 -39.472656 78.390625 -32.640625 C 89.078125 -25.804688 101.25 -22.390625 114.90625 -22.390625 C 127.207031 -22.390625 138.085938 -25.023438 147.546875 -30.296875 C 157.015625 -35.566406 164.457031 -43.03125 169.875 -52.6875 C 175.289062 -62.351562 178 -73.726562 178 -86.8125 L 186.34375 -85.34375 L 121.359375 -85.34375 L 121.359375 -109.5 L 204.9375 -109.5 L 204.9375 -85.78125 C 204.9375 -67.925781 201.03125 -52.335938 193.21875 -39.015625 C 185.414062 -25.691406 174.753906 -15.34375 161.234375 -7.96875 C 147.722656 -0.601562 132.28125 3.078125 114.90625 3.078125 Z M 114.90625 3.078125 "/></g></g></g><g fill="#767676" fill-opacity="1"><g transform="translate(198.957501, 287.86259)"><g><path d="M 93.25 0 L 40.546875 0 L 40.546875 -24.296875 L 91.484375 -24.296875 C 109.253906 -24.296875 123.992188 -27.710938 135.703125 -34.546875 C 147.410156 -41.378906 156.140625 -51.160156 161.890625 -63.890625 C 167.648438 -76.628906 170.53125 -91.832031 170.53125 -109.5 C 170.53125 -126.96875 167.675781 -141.992188 161.96875 -154.578125 C 156.257812 -167.171875 147.769531 -176.859375 136.5 -183.640625 C 125.226562 -190.421875 111.101562 -193.8125 94.125 -193.8125 L 39.375 -193.8125 L 39.375 -218.109375 L 96.03125 -218.109375 C 117.300781 -218.109375 135.472656 -213.765625 150.546875 -205.078125 C 165.628906 -196.398438 177.195312 -183.9375 185.25 -167.6875 C 193.300781 -151.4375 197.328125 -132.039062 197.328125 -109.5 C 197.328125 -86.757812 193.273438 -67.210938 185.171875 -50.859375 C 177.078125 -34.515625 165.269531 -21.953125 149.75 -13.171875 C 134.238281 -4.390625 115.40625 0 93.25 0 Z M 52.84375 -218.109375 L 52.84375 0 L 25.328125 0 L 25.328125 -218.109375 Z M 52.84375 -218.109375 "/></g></g></g><g fill="#767676" fill-opacity="1"><g transform="translate(379.616915, 287.86259)"><g><path d="M 12.734375 -193.8125 L 12.734375 -218.109375 L 178.4375 -218.109375 L 178.4375 -193.8125 L 109.5 -193.8125 L 109.5 0 L 81.96875 0 L 81.96875 -193.8125 Z M 12.734375 -193.8125 "/></g></g></g><g fill="#767676" fill-opacity="1"><g transform="translate(547.102804, 287.86259)"><g><path d="M 95.59375 3.8125 C 79.6875 3.8125 65.851562 1.148438 54.09375 -4.171875 C 42.332031 -9.492188 33.179688 -16.910156 26.640625 -26.421875 C 20.097656 -35.929688 16.488281 -47.128906 15.8125 -60.015625 L 43.921875 -60.015625 C 44.503906 -51.328125 47.132812 -44.078125 51.8125 -38.265625 C 56.5 -32.460938 62.671875 -28.125 70.328125 -25.25 C 77.992188 -22.375 86.414062 -20.9375 95.59375 -20.9375 C 105.644531 -20.9375 114.597656 -22.546875 122.453125 -25.765625 C 130.304688 -28.984375 136.5 -33.492188 141.03125 -39.296875 C 145.570312 -45.109375 147.84375 -51.867188 147.84375 -59.578125 C 147.84375 -66.410156 145.988281 -72.046875 142.28125 -76.484375 C 138.570312 -80.921875 133.472656 -84.601562 126.984375 -87.53125 C 120.492188 -90.46875 113.054688 -93.054688 104.671875 -95.296875 L 78.75 -102.46875 C 60.113281 -107.539062 45.914062 -114.6875 36.15625 -123.90625 C 26.394531 -133.132812 21.515625 -145.019531 21.515625 -159.5625 C 21.515625 -171.957031 24.785156 -182.765625 31.328125 -191.984375 C 37.867188 -201.203125 46.796875 -208.375 58.109375 -213.5 C 69.429688 -218.625 82.21875 -221.1875 96.46875 -221.1875 C 111.007812 -221.1875 123.816406 -218.597656 134.890625 -213.421875 C 145.972656 -208.253906 154.679688 -201.128906 161.015625 -192.046875 C 167.359375 -182.972656 170.726562 -172.632812 171.125 -161.03125 L 144.1875 -161.03125 C 143.019531 -172.34375 137.992188 -181.117188 129.109375 -187.359375 C 120.234375 -193.609375 109.0625 -196.734375 95.59375 -196.734375 C 86.21875 -196.734375 77.96875 -195.171875 70.84375 -192.046875 C 63.726562 -188.929688 58.191406 -184.6875 54.234375 -179.3125 C 50.285156 -173.945312 48.3125 -167.800781 48.3125 -160.875 C 48.3125 -153.75 50.476562 -147.914062 54.8125 -143.375 C 59.15625 -138.84375 64.570312 -135.207031 71.0625 -132.46875 C 77.550781 -129.738281 84.019531 -127.5 90.46875 -125.75 L 112.859375 -119.75 C 119.785156 -117.988281 126.859375 -115.617188 134.078125 -112.640625 C 141.304688 -109.660156 147.992188 -105.878906 154.140625 -101.296875 C 160.285156 -96.710938 165.257812 -91.003906 169.0625 -84.171875 C 172.875 -77.335938 174.78125 -69.140625 174.78125 -59.578125 C 174.78125 -47.472656 171.632812 -36.640625 165.34375 -27.078125 C 159.050781 -17.515625 150 -9.972656 138.1875 -4.453125 C 126.375 1.054688 112.175781 3.8125 95.59375 3.8125 Z M 95.59375 3.8125 "/></g></g></g></g></g></svg>